<svg aria-hidden="true" style="position: absolute; width: 0; height: 0; overflow: hidden;" version="1.1" xmlns="http://www.w3.org/2000/svg" xmlns:xlink="http://www.w3.org/1999/xlink">
<defs>
<symbol id="icon-WebStudio2" viewBox="0 0 23 32">
<path fill="#000" style="fill: var(--color1, #000)" d="M15.564 4.903c-0.101-0.1-0.288-0.237-0.56-0.408-0.259-0.172-0.582-0.338-0.97-0.496-0.373-0.172-0.782-0.317-1.227-0.431-0.445-0.115-0.897-0.172-1.357-0.172-0.819 0-1.43 0.151-1.832 0.453s-0.602 0.725-0.602 1.27c0 0.317 0.071 0.582 0.216 0.797 0.157 0.2 0.38 0.38 0.667 0.539 0.288 0.157 0.646 0.302 1.077 0.43 0.445 0.129 0.955 0.266 1.529 0.409 0.747 0.201 1.422 0.417 2.024 0.646 0.617 0.23 1.135 0.517 1.552 0.862 0.43 0.345 0.761 0.761 0.99 1.249 0.23 0.474 0.345 1.062 0.345 1.766 0 0.819-0.158 1.522-0.474 2.111-0.302 0.574-0.718 1.041-1.25 1.401-0.516 0.359-1.119 0.624-1.809 0.796-0.674 0.158-1.386 0.237-2.132 0.237-1.149 0-2.282-0.172-3.403-0.517-1.121-0.344-2.125-0.833-3.016-1.464l1.314-2.563c0.129 0.129 0.359 0.302 0.689 0.517 0.345 0.201 0.747 0.409 1.207 0.625 0.459 0.2 0.969 0.373 1.529 0.517 0.56 0.143 1.135 0.214 1.723 0.214 1.638 0 2.456-0.524 2.456-1.572 0-0.33-0.093-0.61-0.28-0.84-0.186-0.229-0.451-0.43-0.796-0.602s-0.762-0.331-1.25-0.474c-0.488-0.143-1.033-0.302-1.637-0.474-0.733-0.2-1.372-0.416-1.917-0.646-0.531-0.243-0.976-0.524-1.336-0.839-0.359-0.331-0.631-0.704-0.818-1.121-0.172-0.431-0.259-0.941-0.259-1.529 0-0.776 0.143-1.464 0.431-2.068 0.287-0.603 0.682-1.105 1.184-1.507 0.517-0.403 1.113-0.705 1.789-0.905 0.674-0.216 1.4-0.323 2.175-0.323 1.076 0 2.068 0.172 2.972 0.517 0.905 0.33 1.695 0.725 2.369 1.184l-1.313 2.412z"></path>
<path fill="#2196f3" style="fill: var(--color2, #2196f3)" d="M15.379 1.313h-2.735l-1.719 5.048v3.795l2.644 6.406h2.499l6.182-15.292h-3.188l-4.351 11.889-1.895-4.888z"></path>
<path fill="#000" style="fill: var(--color1, #000)" d="M15.564 4.904c-0.349-0.348-1.075-0.719-1.53-0.905-0.957-0.441-2.021-0.678-3.077-0.581-0.002-0.028-0.008-0.056-0.017-0.083l-0.868-2.409c1.494-0.29 3.131-0.116 4.437 0.381 0.905 0.33 1.695 0.725 2.369 1.184l-1.313 2.412zM9.056 5.503c0.431 1.87 5.118 1.425 7.279 3.54-0.131 0.102-0.237 0.241-0.301 0.408l-1.353 3.562c-0.108-0.25-0.258-0.692-0.432-0.888-0.005-1.184-1.346-1.633-2.326-1.922-1.178-0.346-2.426-0.645-3.553-1.121-0.928-0.426-1.726-1.004-2.154-1.96-0.422-1.056-0.311-2.582 0.172-3.596 0.321-0.673 0.787-1.209 1.346-1.622l1.322 3.598zM13.431 16.219c-2.705 0.484-5.867-0.253-8.099-1.837l1.314-2.563c0.129 0.129 0.359 0.302 0.689 0.517 1.529 0.891 3.283 1.505 5.074 1.329-0.003 0.049 0.003 0.098 0.024 0.147l0.999 2.408z"></path>
</symbol>
<symbol id="icon-WebStudio" viewBox="0 0 23 32">
<path fill="#000" style="fill: var(--color1, #000)" d="M1.461 0.493c-0.009-0.010-0.025-0.022-0.050-0.037-0.023-0.015-0.052-0.030-0.086-0.044-0.033-0.015-0.070-0.028-0.109-0.038-0.040-0.011-0.080-0.016-0.121-0.016-0.073 0-0.127 0.014-0.163 0.041-0.037 0.027-0.054 0.064-0.054 0.113 0 0.028 0.006 0.052 0.019 0.070 0.014 0.018 0.033 0.034 0.059 0.048 0.025 0.014 0.057 0.027 0.096 0.038 0.039 0.012 0.084 0.024 0.136 0.037 0.066 0.018 0.126 0.037 0.18 0.057 0.055 0.020 0.101 0.046 0.138 0.078 0.039 0.030 0.068 0.067 0.088 0.111 0.020 0.042 0.030 0.094 0.030 0.156 0 0.073-0.014 0.136-0.042 0.189-0.027 0.051-0.064 0.093-0.111 0.124-0.046 0.032-0.1 0.056-0.161 0.071-0.060 0.014-0.124 0.022-0.19 0.022-0.102 0-0.204-0.016-0.303-0.046-0.1-0.030-0.19-0.074-0.268-0.13l0.116-0.228c0.012 0.012 0.032 0.027 0.061 0.046 0.031 0.018 0.067 0.037 0.108 0.056 0.041 0.017 0.086 0.033 0.136 0.045 0.050 0.013 0.101 0.019 0.153 0.019 0.145 0 0.219-0.046 0.219-0.14 0-0.029-0.009-0.054-0.025-0.074-0.017-0.020-0.041-0.039-0.071-0.054-0.031-0.015-0.068-0.029-0.111-0.042-0.044-0.013-0.093-0.027-0.145-0.042-0.066-0.018-0.123-0.037-0.171-0.057-0.046-0.022-0.086-0.047-0.119-0.075-0.031-0.029-0.056-0.063-0.072-0.099-0.016-0.039-0.024-0.084-0.024-0.136 0-0.069 0.013-0.13 0.039-0.184s0.060-0.098 0.106-0.135c0.045-0.036 0.099-0.063 0.158-0.080 0.060-0.019 0.125-0.029 0.194-0.029 0.096 0 0.183 0.015 0.264 0.046 0.081 0.029 0.151 0.065 0.211 0.106l-0.117 0.214z"></path>
<path fill="#2196f3" style="fill: var(--color2, #2196f3)" d="M1.445 0.173h-0.244l-0.152 0.449v0.337l0.235 0.57h0.222l0.55-1.36h-0.283l-0.387 1.057-0.168-0.434z"></path>
<path fill="#000" style="fill: var(--color1, #000)" d="M1.461 0.493c-0.030-0.031-0.095-0.065-0.136-0.081-0.085-0.039-0.18-0.060-0.274-0.052 0-0.002-0.001-0.004-0.001-0.008l-0.078-0.214c0.133-0.025 0.278-0.010 0.394 0.034 0.081 0.029 0.151 0.065 0.211 0.106l-0.117 0.214zM0.882 0.546c0.039 0.167 0.456 0.127 0.648 0.315-0.012 0.010-0.022 0.022-0.027 0.037l-0.121 0.317c-0.009-0.022-0.023-0.061-0.038-0.079-0.001-0.106-0.12-0.145-0.207-0.171-0.105-0.030-0.217-0.057-0.317-0.099-0.082-0.038-0.153-0.089-0.191-0.175-0.038-0.094-0.028-0.23 0.015-0.32 0.028-0.060 0.070-0.108 0.12-0.144l0.117 0.32zM1.271 1.5c-0.24 0.043-0.521-0.023-0.72-0.164l0.116-0.227c0.012 0.011 0.032 0.026 0.061 0.045 0.136 0.080 0.292 0.135 0.451 0.119 0 0.004 0 0.009 0.002 0.013l0.088 0.214z"></path>
</symbol>
</defs>
</svg>
